# xmcd CD database file
#
# Track frame offsets:
#	150
#	58907
#	130041
#	153700
#	228624
#	254499
#
# Disc length: 4146 seconds
#
# Revision: 1
# Processed by: cddbd v1.5.2PL0 Copyright (c) Steve Scherf et al.
# Submitted via: CDex 2.14
#
DISCID=54103006
DTITLE=Eugene Chadbourne - Wild Partner
DYEAR=1997
DGENRE=Jazz
TTITLE0=Wild Bill
TTITLE1=Lament For Sunny
TTITLE2=Epistrophy
TTITLE3=Lament For Tai
TTITLE4=52nd St. Theme
TTITLE5=Wild Bill I/II
EXTD=YEAR: 1997
EXTT0=
EXTT1=
EXTT2=
EXTT3=
EXTT4=
EXTT5=
PLAYORDER=
